{
    "asset": {
        "version": "2.0",
        "generator": "This 3D model is generated by KIRI Engine App"
    },
    "extensionsUsed": [
        "KHR_materials_pbrSpecularGlossiness",
        "FB_ngon_encoding"
    ],
    "accessors": [
        {
            "bufferView": 0,
            "byteOffset": 0,
            "componentType": 5126,
            "count": 57412,
            "type": "VEC3",
            "max": [
                2.6122560501098635,
                4.815692901611328,
                6.820288181304932
            ],
            "min": [
                -2.595952033996582,
                -4.813457012176514,
                -11.592208862304688
            ]
        },
        {
            "bufferView": 1,
            "byteOffset": 0,
            "componentType": 5126,
            "count": 57412,
            "type": "VEC3",
            "max": [
                0.9999988079071045,
                0.9991800785064697,
                0.9994941353797913
            ],
            "min": [
                -0.9983236789703369,
                -0.9999123811721802,
                -0.9993276596069336
            ]
        },
        {
            "bufferView": 2,
            "byteOffset": 0,
            "componentType": 5126,
            "count": 57412,
            "type": "VEC2",
            "max": [
                0.9999920129776001,
                0.9998250007629395
            ],
            "min": [
                0.0001320000010309741,
                0.03495502471923828
            ]
        },
        {
            "bufferView": 3,
            "byteOffset": 0,
            "componentType": 5125,
            "count": 336153,
            "type": "SCALAR",
            "max": [
                57411
            ],
            "min": [
                0
            ]
        }
    ],
    "buffers": [
        {
            "byteLength": 3181796,
            "uri": "3DModel_Custom.bin"
        }
    ],
    "bufferViews": [
        {
            "buffer": 0,
            "byteOffset": 0,
            "byteLength": 688944,
            "target": 34962
        },
        {
            "buffer": 0,
            "byteOffset": 688944,
            "byteLength": 688944,
            "target": 34962
        },
        {
            "buffer": 0,
            "byteOffset": 1377888,
            "byteLength": 459296,
            "target": 34962
        },
        {
            "buffer": 0,
            "byteOffset": 1837184,
            "byteLength": 1344612,
            "target": 34963
        }
    ],
    "images": [
        {
            "uri": "data:image/jpeg;base64,"
        }
    ],
    "materials": [
        {
            "name": "3DModel_Custom",
            "pbrMetallicRoughness": {
                "baseColorTexture": {
                    "index": 0
                },
                "metallicFactor": 0.0
            },
            "extensions": {
                "KHR_materials_pbrSpecularGlossiness": {
                    "specularFactor": [
                        0.0,
                        0.0,
                        0.0
                    ],
                    "glossinessFactor": 0.0,
                    "diffuseTexture": {
                        "index": 0
                    }
                }
            }
        }
    ],
    "meshes": [
        {
            "name": "3DModel_Custom",
            "primitives": [
                {
                    "mode": 4,
                    "material": 0,
                    "indices": 3,
                    "attributes": {
                        "POSITION": 0,
                        "NORMAL": 1,
                        "TEXCOORD_0": 2
                    }
                }
            ]
        }
    ],
    "nodes": [
        {
            "name": "3DModel_Custom.obj",
            "children": [
                1
            ]
        },
        {
            "name": "3DModel_Custom",
            "mesh": 0
        }
    ],
    "samplers": [
        {}
    ],
    "scenes": [
        {
            "nodes": [
                0
            ]
        }
    ],
    "textures": [
        {
            "source": 0,
            "sampler": 0
        }
    ],
    "scene": 0
}