{
    "asset": {
        "version": "2.0",
        "generator": "This 3D model is generated by KIRI Engine App"
    },
    "extensionsUsed": [
        "KHR_materials_pbrSpecularGlossiness",
        "FB_ngon_encoding"
    ],
    "accessors": [
        {
            "bufferView": 0,
            "byteOffset": 0,
            "componentType": 5126,
            "count": 215765,
            "type": "VEC3",
            "max": [
                0.7723889946937561,
                1.6635160446166993,
                0.7547490000724793
            ],
            "min": [
                -1.3962780237197877,
                -1.967432975769043,
                -1.103327989578247
            ]
        },
        {
            "bufferView": 1,
            "byteOffset": 0,
            "componentType": 5126,
            "count": 215765,
            "type": "VEC3",
            "max": [
                0.9999967813491821,
                0.9999991655349731,
                0.9999948740005493
            ],
            "min": [
                -0.9999991655349731,
                -0.9999668598175049,
                -0.9999980926513672
            ]
        },
        {
            "bufferView": 2,
            "byteOffset": 0,
            "componentType": 5126,
            "count": 215765,
            "type": "VEC2",
            "max": [
                0.9956420063972473,
                0.9999930262565613
            ],
            "min": [
                0.00015999999595806003,
                0.00010699033737182617
            ]
        },
        {
            "bufferView": 3,
            "byteOffset": 0,
            "componentType": 5125,
            "count": 1259484,
            "type": "SCALAR",
            "max": [
                215764
            ],
            "min": [
                0
            ]
        }
    ],
    "buffers": [
        {
            "byteLength": 11942416,
            "uri": "3DModel_Custom.bin"
        }
    ],
    "bufferViews": [
        {
            "buffer": 0,
            "byteOffset": 0,
            "byteLength": 2589180,
            "target": 34962
        },
        {
            "buffer": 0,
            "byteOffset": 2589180,
            "byteLength": 2589180,
            "target": 34962
        },
        {
            "buffer": 0,
            "byteOffset": 5178360,
            "byteLength": 1726120,
            "target": 34962
        },
        {
            "buffer": 0,
            "byteOffset": 6904480,
            "byteLength": 5037936,
            "target": 34963
        }
    ],
    "images": [
        {
            "uri": "data:image/jpeg;base64,"
        }
    ],
    "materials": [
        {
            "name": "3DModel_Custom",
            "pbrMetallicRoughness": {
                "baseColorTexture": {
                    "index": 0
                },
                "metallicFactor": 0.0
            },
            "extensions": {
                "KHR_materials_pbrSpecularGlossiness": {
                    "specularFactor": [
                        0.0,
                        0.0,
                        0.0
                    ],
                    "glossinessFactor": 0.0,
                    "diffuseTexture": {
                        "index": 0
                    }
                }
            }
        }
    ],
    "meshes": [
        {
            "name": "3DModel_Custom",
            "primitives": [
                {
                    "mode": 4,
                    "material": 0,
                    "indices": 3,
                    "attributes": {
                        "POSITION": 0,
                        "NORMAL": 1,
                        "TEXCOORD_0": 2
                    }
                }
            ]
        }
    ],
    "nodes": [
        {
            "name": "3DModel_Custom.obj",
            "children": [
                1
            ]
        },
        {
            "name": "3DModel_Custom",
            "mesh": 0
        }
    ],
    "samplers": [
        {}
    ],
    "scenes": [
        {
            "nodes": [
                0
            ]
        }
    ],
    "textures": [
        {
            "source": 0,
            "sampler": 0
        }
    ],
    "scene": 0
}