{
    "asset": {
        "version": "2.0",
        "generator": "This 3D model is generated by KIRI Engine App"
    },
    "extensionsUsed": [
        "KHR_materials_pbrSpecularGlossiness",
        "FB_ngon_encoding"
    ],
    "accessors": [
        {
            "bufferView": 0,
            "byteOffset": 0,
            "componentType": 5126,
            "count": 81768,
            "type": "VEC3",
            "max": [
                1.5002700090408326,
                0.49207499623298647,
                1.0273319482803345
            ],
            "min": [
                -0.9546160101890564,
                -0.808184027671814,
                -1.3089439868927003
            ]
        },
        {
            "bufferView": 1,
            "byteOffset": 0,
            "componentType": 5126,
            "count": 81768,
            "type": "VEC3",
            "max": [
                0.8798971176147461,
                0.7428163886070252,
                0.9275287389755249
            ],
            "min": [
                -0.9997871518135071,
                -0.9999754428863525,
                -0.7840996980667114
            ]
        },
        {
            "bufferView": 2,
            "byteOffset": 0,
            "componentType": 5126,
            "count": 81768,
            "type": "VEC2",
            "max": [
                0.9999989867210388,
                0.9999899864196777
            ],
            "min": [
                0.00023299999884329736,
                0.14466702938079835
            ]
        },
        {
            "bufferView": 3,
            "byteOffset": 0,
            "componentType": 5125,
            "count": 482226,
            "type": "SCALAR",
            "max": [
                81767
            ],
            "min": [
                0
            ]
        }
    ],
    "buffers": [
        {
            "byteLength": 4545480,
            "uri": "3DModel_Custom.bin"
        }
    ],
    "bufferViews": [
        {
            "buffer": 0,
            "byteOffset": 0,
            "byteLength": 981216,
            "target": 34962
        },
        {
            "buffer": 0,
            "byteOffset": 981216,
            "byteLength": 981216,
            "target": 34962
        },
        {
            "buffer": 0,
            "byteOffset": 1962432,
            "byteLength": 654144,
            "target": 34962
        },
        {
            "buffer": 0,
            "byteOffset": 2616576,
            "byteLength": 1928904,
            "target": 34963
        }
    ],
    "images": [
        {
            "uri": "data:image/jpeg;base64,"
        }
    ],
    "materials": [
        {
            "name": "3DModel_Custom",
            "pbrMetallicRoughness": {
                "baseColorTexture": {
                    "index": 0
                },
                "metallicFactor": 0.0
            },
            "extensions": {
                "KHR_materials_pbrSpecularGlossiness": {
                    "specularFactor": [
                        0.0,
                        0.0,
                        0.0
                    ],
                    "glossinessFactor": 0.0,
                    "diffuseTexture": {
                        "index": 0
                    }
                }
            }
        }
    ],
    "meshes": [
        {
            "name": "3DModel_Custom",
            "primitives": [
                {
                    "mode": 4,
                    "material": 0,
                    "indices": 3,
                    "attributes": {
                        "POSITION": 0,
                        "NORMAL": 1,
                        "TEXCOORD_0": 2
                    }
                }
            ]
        }
    ],
    "nodes": [
        {
            "name": "3DModel_Custom.obj",
            "children": [
                1
            ]
        },
        {
            "name": "3DModel_Custom",
            "mesh": 0
        }
    ],
    "samplers": [
        {}
    ],
    "scenes": [
        {
            "nodes": [
                0
            ]
        }
    ],
    "textures": [
        {
            "source": 0,
            "sampler": 0
        }
    ],
    "scene": 0
}